<?xml version="1.0" encoding="UTF-8" standalone="no"?>
<!-- Generator: Adobe Illustrator 24.0.2, SVG Export Plug-In . SVG Version: 6.00 Build 0)  -->

<svg
   version="1.1"
   id="Layer_1"
   x="0px"
   y="0px"
   width="64"
   height="64"
   viewBox="0 0 64 64"
   style="enable-background:new 0 0 64 64;"
   xml:space="preserve"
   sodipodi:docname="icon-m-step-back.svg"
   inkscape:version="1.2.2 (1:1.2.2+202212051552+b0a8486541)"
   xmlns:inkscape="http://www.inkscape.org/namespaces/inkscape"
   xmlns:sodipodi="http://sodipodi.sourceforge.net/DTD/sodipodi-0.dtd"
   xmlns="http://www.w3.org/2000/svg"
   xmlns:svg="http://www.w3.org/2000/svg"><defs
   id="defs19" /><sodipodi:namedview
   id="namedview17"
   pagecolor="#ffffff"
   bordercolor="#000000"
   borderopacity="0.25"
   inkscape:showpageshadow="2"
   inkscape:pageopacity="0.0"
   inkscape:pagecheckerboard="0"
   inkscape:deskcolor="#d1d1d1"
   showgrid="false"
   inkscape:zoom="3.6875"
   inkscape:cx="4.8813559"
   inkscape:cy="32"
   inkscape:window-width="1920"
   inkscape:window-height="1052"
   inkscape:window-x="1920"
   inkscape:window-y="0"
   inkscape:window-maximized="1"
   inkscape:current-layer="Layer_1" />
<g
   id="icon-m-10s-back_2_">
	<rect
   id="icon-m-10s-back_3_"
   style="opacity:0;fill:#FFFFFF;"
   width="64"
   height="64" />
	<g
   id="g7">
		<path
   style="fill:#FFFFFF;"
   d="M31.511,18.241c-0.116,0-0.232-0.02-0.344-0.061l-12.965-4.746c-0.34-0.125-0.586-0.423-0.644-0.78    s0.083-0.718,0.367-0.943c4.467-3.536,8.938-4.235,14.244-4.194c0.552,0.004,0.997,0.455,0.992,1.007    c-0.003,0.404-0.245,0.751-0.592,0.906l-0.058,7.818c-0.002,0.325-0.163,0.629-0.43,0.814    C31.911,18.181,31.712,18.241,31.511,18.241z M20.67,12.208l9.852,3.606l0.046-6.282C26.95,9.632,23.762,10.243,20.67,12.208z"
   id="path3" />
		<path
   style="opacity:0.6;fill:#FFFFFF;"
   d="M32.407,56.482c-0.063,0-0.125-0.001-0.188-0.001    c-6.54-0.049-12.668-2.641-17.258-7.299c-4.589-4.659-7.09-10.825-7.042-17.365c0.004-0.552,0.49-1.026,1.007-0.993    c0.552,0.004,0.997,0.455,0.993,1.007c-0.092,12.396,9.917,22.556,22.314,22.649c5.995,0,11.668-2.252,15.946-6.466    c4.278-4.215,6.658-9.843,6.703-15.848S52.631,20.5,48.417,16.222c-4.215-4.278-9.843-6.659-15.848-6.703    c-0.552-0.004-0.997-0.455-0.993-1.007s0.428-0.983,1.007-0.993c6.54,0.048,12.668,2.641,17.258,7.299    c4.589,4.658,7.09,10.825,7.041,17.364c-0.049,6.54-2.641,12.668-7.299,17.258C44.97,53.985,38.876,56.482,32.407,56.482z"
   id="path5" />
	</g>
	
</g>
</svg>
